<svg xmlns="http://www.w3.org/2000/svg" xmlns:xlink="http://www.w3.org/1999/xlink" width="178" zoomAndPan="magnify" viewBox="0 0 133.5 61.499998" height="82" preserveAspectRatio="xMidYMid meet" version="1.0"><defs><g/></defs><g fill="#ffffff" fill-opacity="0.8"><g transform="translate(13.676316, 48.426806)"><g><path d="M 10.015625 7.375 C 9.242188 7.375 8.640625 7.09375 8.203125 6.53125 C 7.390625 5.539062 7.285156 4.484375 7.890625 3.359375 C 8.617188 2.109375 9.640625 0.90625 10.953125 -0.25 C 12.265625 -1.414062 13.523438 -2.367188 14.734375 -3.109375 C 15.160156 -3.316406 15.566406 -3.550781 15.953125 -3.8125 C 16.347656 -4.070312 16.757812 -4.332031 17.1875 -4.59375 C 17.570312 -4.800781 17.96875 -5.035156 18.375 -5.296875 C 18.789062 -5.554688 19.210938 -5.796875 19.640625 -6.015625 C 20.285156 -6.398438 20.75 -6.9375 21.03125 -7.625 C 21.3125 -8.3125 21.492188 -9.023438 21.578125 -9.765625 C 21.835938 -12.347656 20.695312 -13.679688 18.15625 -13.765625 C 17.425781 -13.765625 16.738281 -13.703125 16.09375 -13.578125 C 15.613281 -13.484375 15.113281 -13.367188 14.59375 -13.234375 C 14.082031 -13.109375 13.59375 -13.003906 13.125 -12.921875 C 12.601562 -12.835938 12.082031 -12.726562 11.5625 -12.59375 C 11.050781 -12.46875 10.554688 -12.363281 10.078125 -12.28125 C 9.429688 -12.144531 8.765625 -12.015625 8.078125 -11.890625 C 7.390625 -11.765625 6.703125 -11.703125 6.015625 -11.703125 C 4.585938 -11.703125 3.378906 -12.046875 2.390625 -12.734375 C 1.398438 -13.421875 0.710938 -14.472656 0.328125 -15.890625 C 0.0234375 -17.015625 -0.09375 -18.132812 -0.03125 -19.25 C 0.03125 -20.375 0.210938 -21.5 0.515625 -22.625 C 1.078125 -25.03125 2.035156 -27.425781 3.390625 -29.8125 C 4.742188 -32.207031 6.359375 -34.425781 8.234375 -36.46875 C 10.109375 -38.519531 12.082031 -40.238281 14.15625 -41.625 C 15.445312 -42.476562 16.84375 -43.207031 18.34375 -43.8125 C 19.851562 -44.414062 21.382812 -44.71875 22.9375 -44.71875 C 24.707031 -44.71875 26.269531 -44.273438 27.625 -43.390625 C 28.976562 -42.515625 29.703125 -41.148438 29.796875 -39.296875 C 29.878906 -38.347656 29.789062 -37.503906 29.53125 -36.765625 C 28.71875 -33.921875 27.363281 -31.226562 25.46875 -28.6875 C 24.863281 -28 24.140625 -27.320312 23.296875 -26.65625 C 22.453125 -25.988281 21.535156 -25.65625 20.546875 -25.65625 C 20.335938 -25.65625 20.132812 -25.6875 19.9375 -25.75 C 19.738281 -25.8125 19.617188 -25.972656 19.578125 -26.234375 C 19.535156 -26.535156 19.664062 -26.816406 19.96875 -27.078125 C 20.050781 -27.160156 20.140625 -27.203125 20.234375 -27.203125 C 20.316406 -27.203125 20.378906 -27.222656 20.421875 -27.265625 C 21.367188 -27.441406 22.296875 -27.957031 23.203125 -28.8125 C 24.109375 -29.675781 24.9375 -30.710938 25.6875 -31.921875 C 26.4375 -33.128906 27.035156 -34.347656 27.484375 -35.578125 C 27.941406 -36.804688 28.171875 -37.875 28.171875 -38.78125 C 28.171875 -40.320312 27.65625 -41.414062 26.625 -42.0625 C 25.59375 -42.71875 24.382812 -43.046875 23 -43.046875 C 21.800781 -43.046875 20.550781 -42.804688 19.25 -42.328125 C 17.957031 -41.859375 16.816406 -41.300781 15.828125 -40.65625 C 8.941406 -36.21875 4.351562 -30.007812 2.0625 -22.03125 C 1.851562 -21.175781 1.710938 -20.335938 1.640625 -19.515625 C 1.578125 -18.691406 1.632812 -17.875 1.8125 -17.0625 C 2.238281 -14.5625 3.59375 -13.3125 5.875 -13.3125 C 6.050781 -13.3125 6.179688 -13.332031 6.265625 -13.375 C 6.304688 -13.375 6.359375 -13.375 6.421875 -13.375 C 6.492188 -13.375 6.550781 -13.375 6.59375 -13.375 C 6.851562 -13.414062 7.109375 -13.46875 7.359375 -13.53125 C 7.617188 -13.601562 7.878906 -13.660156 8.140625 -13.703125 C 8.398438 -13.742188 8.660156 -13.785156 8.921875 -13.828125 C 9.179688 -13.867188 9.4375 -13.910156 9.6875 -13.953125 C 10.164062 -14.046875 10.648438 -14.15625 11.140625 -14.28125 C 11.640625 -14.40625 12.128906 -14.515625 12.609375 -14.609375 C 13.078125 -14.691406 13.546875 -14.785156 14.015625 -14.890625 C 14.492188 -15.003906 14.972656 -15.101562 15.453125 -15.1875 C 15.960938 -15.3125 16.472656 -15.382812 16.984375 -15.40625 C 17.503906 -15.4375 18.046875 -15.453125 18.609375 -15.453125 C 20.117188 -15.359375 21.289062 -14.847656 22.125 -13.921875 C 22.96875 -12.992188 23.367188 -11.78125 23.328125 -10.28125 C 23.328125 -10.019531 23.285156 -9.71875 23.203125 -9.375 C 23.117188 -9.03125 23.140625 -8.707031 23.265625 -8.40625 L 23.53125 -8.40625 C 23.875 -8.40625 24.148438 -8.488281 24.359375 -8.65625 C 24.453125 -8.738281 24.5625 -8.8125 24.6875 -8.875 C 24.8125 -8.945312 24.921875 -9.003906 25.015625 -9.046875 L 33.609375 -13.578125 C 33.691406 -13.617188 33.796875 -13.660156 33.921875 -13.703125 C 34.054688 -13.742188 34.1875 -13.785156 34.3125 -13.828125 C 34.394531 -13.867188 34.5 -13.910156 34.625 -13.953125 C 34.757812 -14.003906 34.875 -14.050781 34.96875 -14.09375 C 35.007812 -14.132812 35.09375 -14.15625 35.21875 -14.15625 C 35.4375 -14.15625 35.609375 -14.046875 35.734375 -13.828125 C 35.773438 -13.742188 35.804688 -13.65625 35.828125 -13.5625 C 35.847656 -13.476562 35.859375 -13.394531 35.859375 -13.3125 C 35.859375 -13.09375 35.796875 -12.941406 35.671875 -12.859375 C 35.453125 -12.640625 35.21875 -12.46875 34.96875 -12.34375 C 34.832031 -12.300781 34.695312 -12.242188 34.5625 -12.171875 C 34.4375 -12.109375 34.3125 -12.035156 34.1875 -11.953125 C 33.363281 -11.523438 32.53125 -11.082031 31.6875 -10.625 C 30.851562 -10.175781 30.003906 -9.710938 29.140625 -9.234375 C 27.421875 -8.285156 25.675781 -7.382812 23.90625 -6.53125 C 22.65625 -5.882812 21.753906 -4.957031 21.203125 -3.75 C 20.804688 -2.882812 20.253906 -1.890625 19.546875 -0.765625 C 18.835938 0.347656 18.019531 1.453125 17.09375 2.546875 C 16.164062 3.648438 15.195312 4.617188 14.1875 5.453125 C 13.175781 6.296875 12.21875 6.847656 11.3125 7.109375 C 10.96875 7.285156 10.535156 7.375 10.015625 7.375 Z M 10.140625 5.6875 C 10.316406 5.6875 10.425781 5.664062 10.46875 5.625 C 10.894531 5.445312 11.328125 5.226562 11.765625 4.96875 C 13.140625 4.15625 14.472656 2.984375 15.765625 1.453125 C 17.054688 -0.078125 18.003906 -1.703125 18.609375 -3.421875 C 17.703125 -2.910156 16.570312 -2.210938 15.21875 -1.328125 C 13.863281 -0.441406 12.613281 0.492188 11.46875 1.484375 C 10.332031 2.472656 9.585938 3.441406 9.234375 4.390625 C 9.148438 4.734375 9.238281 5.054688 9.5 5.359375 C 9.71875 5.578125 9.929688 5.6875 10.140625 5.6875 Z M 10.140625 5.6875 "/></g></g></g><g fill="#ffffff" fill-opacity="0.8"><g transform="translate(46.309029, 48.426806)"><g><path d="M 1.234375 2.0625 C 0.710938 2.0625 0.363281 1.785156 0.1875 1.234375 C 0.0625 0.710938 0 0.148438 0 -0.453125 C -0.0820312 -1.703125 -0.0625 -2.929688 0.0625 -4.140625 C 0.195312 -5.347656 0.367188 -6.570312 0.578125 -7.8125 C 0.660156 -8.25 0.742188 -8.671875 0.828125 -9.078125 C 0.921875 -9.484375 1.007812 -9.90625 1.09375 -10.34375 C 1.1875 -10.726562 1.273438 -11.125 1.359375 -11.53125 C 1.441406 -11.945312 1.503906 -12.367188 1.546875 -12.796875 C 1.585938 -13.015625 1.640625 -13.21875 1.703125 -13.40625 C 1.773438 -13.601562 1.832031 -13.785156 1.875 -13.953125 C 1.957031 -14.347656 1.894531 -14.78125 1.6875 -15.25 C 1.59375 -15.507812 1.613281 -15.722656 1.75 -15.890625 C 1.789062 -15.984375 1.832031 -16.070312 1.875 -16.15625 C 1.914062 -16.238281 1.957031 -16.328125 2 -16.421875 C 2.21875 -16.710938 2.410156 -17.019531 2.578125 -17.34375 C 2.753906 -17.675781 2.90625 -17.988281 3.03125 -18.28125 C 3.125 -18.632812 3.234375 -18.972656 3.359375 -19.296875 C 3.484375 -19.617188 3.613281 -19.953125 3.75 -20.296875 C 4.863281 -23.691406 6.269531 -27.125 7.96875 -30.59375 C 9.675781 -34.0625 11.628906 -37.238281 13.828125 -40.125 C 13.910156 -40.21875 14.023438 -40.316406 14.171875 -40.421875 C 14.328125 -40.523438 14.492188 -40.625 14.671875 -40.71875 C 14.710938 -40.757812 14.773438 -40.78125 14.859375 -40.78125 C 15.296875 -40.78125 15.515625 -40.609375 15.515625 -40.265625 C 15.515625 -40.171875 15.515625 -40.082031 15.515625 -40 C 15.515625 -39.914062 15.515625 -39.832031 15.515625 -39.75 C 15.515625 -39.65625 15.503906 -39.566406 15.484375 -39.484375 C 15.460938 -39.398438 15.425781 -39.316406 15.375 -39.234375 C 15.332031 -39.054688 15.289062 -38.890625 15.25 -38.734375 C 15.207031 -38.585938 15.144531 -38.429688 15.0625 -38.265625 C 15.019531 -38.085938 14.960938 -37.921875 14.890625 -37.765625 C 14.828125 -37.617188 14.753906 -37.457031 14.671875 -37.28125 C 13.421875 -34.488281 12.113281 -31.753906 10.75 -29.078125 C 9.394531 -26.410156 7.878906 -23.785156 6.203125 -21.203125 C 5.554688 -20.203125 4.960938 -18.875 4.421875 -17.21875 C 3.890625 -15.5625 3.414062 -13.796875 3 -11.921875 C 2.59375 -10.046875 2.269531 -8.242188 2.03125 -6.515625 C 1.800781 -4.796875 1.6875 -3.378906 1.6875 -2.265625 C 1.6875 -2.128906 1.695312 -2.007812 1.71875 -1.90625 C 1.738281 -1.800781 1.769531 -1.640625 1.8125 -1.421875 C 2.238281 -1.722656 2.519531 -2.046875 2.65625 -2.390625 C 2.738281 -2.566406 2.8125 -2.726562 2.875 -2.875 C 2.9375 -3.03125 3.015625 -3.191406 3.109375 -3.359375 C 3.535156 -4.265625 4.09375 -5.382812 4.78125 -6.71875 C 5.46875 -8.050781 6.21875 -9.40625 7.03125 -10.78125 C 7.851562 -12.164062 8.71875 -13.4375 9.625 -14.59375 C 10.53125 -15.757812 11.394531 -16.625 12.21875 -17.1875 C 12.519531 -17.40625 12.84375 -17.515625 13.1875 -17.515625 C 13.957031 -17.515625 14.410156 -17.082031 14.546875 -16.21875 C 14.585938 -16.050781 14.617188 -15.898438 14.640625 -15.765625 C 14.660156 -15.640625 14.671875 -15.507812 14.671875 -15.375 C 14.628906 -15.207031 14.609375 -15.054688 14.609375 -14.921875 C 14.609375 -14.796875 14.609375 -14.671875 14.609375 -14.546875 C 14.609375 -14.242188 14.609375 -13.960938 14.609375 -13.703125 C 14.609375 -13.441406 14.609375 -13.179688 14.609375 -12.921875 C 14.566406 -12.410156 14.566406 -11.894531 14.609375 -11.375 C 14.609375 -11.195312 14.609375 -11.046875 14.609375 -10.921875 C 14.609375 -10.796875 14.609375 -10.664062 14.609375 -10.53125 C 14.609375 -10.363281 14.617188 -10.210938 14.640625 -10.078125 C 14.660156 -9.953125 14.691406 -9.820312 14.734375 -9.6875 C 14.859375 -8.957031 15.160156 -8.59375 15.640625 -8.59375 C 15.898438 -8.59375 16.160156 -8.65625 16.421875 -8.78125 C 16.929688 -9.039062 17.628906 -9.472656 18.515625 -10.078125 C 19.398438 -10.679688 20.257812 -11.316406 21.09375 -11.984375 C 21.9375 -12.648438 22.550781 -13.179688 22.9375 -13.578125 C 23.15625 -13.828125 23.394531 -14.0625 23.65625 -14.28125 C 23.738281 -14.363281 23.84375 -14.40625 23.96875 -14.40625 C 24.101562 -14.40625 24.191406 -14.382812 24.234375 -14.34375 C 24.273438 -14.300781 24.304688 -14.28125 24.328125 -14.28125 C 24.347656 -14.28125 24.378906 -14.257812 24.421875 -14.21875 C 24.679688 -14 24.789062 -13.738281 24.75 -13.4375 C 24.625 -12.96875 24.160156 -12.363281 23.359375 -11.625 C 22.566406 -10.894531 21.640625 -10.164062 20.578125 -9.4375 C 19.523438 -8.707031 18.535156 -8.09375 17.609375 -7.59375 C 16.679688 -7.09375 16.003906 -6.84375 15.578125 -6.84375 C 14.285156 -6.84375 13.46875 -7.617188 13.125 -9.171875 C 12.988281 -9.816406 12.910156 -10.472656 12.890625 -11.140625 C 12.867188 -11.816406 12.878906 -12.5 12.921875 -13.1875 C 12.921875 -13.351562 12.921875 -13.5 12.921875 -13.625 C 12.921875 -13.757812 12.921875 -13.894531 12.921875 -14.03125 C 12.921875 -14.15625 12.921875 -14.28125 12.921875 -14.40625 C 12.921875 -14.539062 12.898438 -14.691406 12.859375 -14.859375 C 12.859375 -15.035156 12.773438 -15.125 12.609375 -15.125 C 12.515625 -15.125 12.445312 -15.101562 12.40625 -15.0625 C 12.238281 -14.96875 12.085938 -14.859375 11.953125 -14.734375 C 11.828125 -14.609375 11.71875 -14.5 11.625 -14.40625 C 10.207031 -12.8125 8.894531 -10.882812 7.6875 -8.625 C 6.476562 -6.363281 5.425781 -4.285156 4.53125 -2.390625 C 4.3125 -1.921875 4.070312 -1.457031 3.8125 -1 C 3.550781 -0.550781 3.289062 -0.0859375 3.03125 0.390625 C 2.78125 0.992188 2.4375 1.445312 2 1.75 C 1.65625 1.957031 1.398438 2.0625 1.234375 2.0625 Z M 9.046875 -28.953125 L 9.109375 -28.953125 L 9.109375 -29.015625 C 9.410156 -29.398438 9.539062 -29.742188 9.5 -30.046875 C 9.457031 -29.835938 9.414062 -29.644531 9.375 -29.46875 C 9.332031 -29.289062 9.222656 -29.117188 9.046875 -28.953125 Z M 9.625 -30.1875 L 10.015625 -30.5 C 9.972656 -30.457031 9.921875 -30.414062 9.859375 -30.375 C 9.796875 -30.332031 9.71875 -30.269531 9.625 -30.1875 Z M 10.203125 -30.828125 C 10.296875 -30.910156 10.34375 -30.992188 10.34375 -31.078125 C 10.34375 -31.210938 10.363281 -31.300781 10.40625 -31.34375 Z M 10.203125 -30.828125 "/></g></g></g><g fill="#ffffff" fill-opacity="0.8"><g transform="translate(67.827228, 48.426806)"><g><path d="M 0.328125 -5.5625 C -0.535156 -5.5625 -1.007812 -6.078125 -1.09375 -7.109375 C -1.09375 -8.054688 -0.890625 -9.066406 -0.484375 -10.140625 C -0.078125 -11.222656 0.4375 -12.257812 1.0625 -13.25 C 1.6875 -14.238281 2.320312 -15.054688 2.96875 -15.703125 C 3.144531 -15.921875 3.46875 -16.203125 3.9375 -16.546875 C 4.625 -17.109375 5.335938 -17.390625 6.078125 -17.390625 C 6.722656 -17.390625 7.367188 -17.128906 8.015625 -16.609375 C 8.359375 -16.390625 8.550781 -16.28125 8.59375 -16.28125 C 8.71875 -16.28125 8.910156 -16.453125 9.171875 -16.796875 C 9.390625 -17.015625 9.59375 -17.253906 9.78125 -17.515625 C 9.976562 -17.773438 10.164062 -18.03125 10.34375 -18.28125 C 10.507812 -18.539062 10.691406 -18.800781 10.890625 -19.0625 C 11.085938 -19.320312 11.269531 -19.582031 11.4375 -19.84375 C 11.519531 -19.925781 11.601562 -20.03125 11.6875 -20.15625 C 11.78125 -20.289062 11.867188 -20.421875 11.953125 -20.546875 C 12.035156 -20.640625 12.109375 -20.75 12.171875 -20.875 C 12.242188 -21 12.320312 -21.109375 12.40625 -21.203125 C 12.707031 -21.503906 12.96875 -21.65625 13.1875 -21.65625 C 13.1875 -21.65625 13.316406 -21.609375 13.578125 -21.515625 C 14.003906 -21.253906 14.109375 -20.828125 13.890625 -20.234375 C 13.847656 -20.054688 13.796875 -19.898438 13.734375 -19.765625 C 13.671875 -19.640625 13.59375 -19.515625 13.5 -19.390625 C 13.332031 -19.085938 13.179688 -18.785156 13.046875 -18.484375 C 12.660156 -17.660156 12.207031 -16.644531 11.6875 -15.4375 C 11.175781 -14.238281 10.738281 -13.023438 10.375 -11.796875 C 10.007812 -10.566406 9.828125 -9.476562 9.828125 -8.53125 C 9.828125 -8.144531 9.953125 -7.953125 10.203125 -7.953125 C 10.335938 -7.953125 10.425781 -7.972656 10.46875 -8.015625 C 10.769531 -8.140625 11.0625 -8.265625 11.34375 -8.390625 C 11.625 -8.523438 11.914062 -8.679688 12.21875 -8.859375 C 12.601562 -9.109375 13 -9.375 13.40625 -9.65625 C 13.820312 -9.9375 14.222656 -10.25 14.609375 -10.59375 C 14.910156 -10.8125 15.1875 -11.050781 15.4375 -11.3125 C 15.695312 -11.570312 15.957031 -11.804688 16.21875 -12.015625 C 16.695312 -12.492188 17.210938 -12.945312 17.765625 -13.375 C 17.859375 -13.457031 17.957031 -13.539062 18.0625 -13.625 C 18.164062 -13.71875 18.265625 -13.804688 18.359375 -13.890625 C 18.441406 -13.984375 18.613281 -14.113281 18.875 -14.28125 C 18.957031 -14.320312 19.019531 -14.351562 19.0625 -14.375 C 19.101562 -14.394531 19.144531 -14.40625 19.1875 -14.40625 C 19.363281 -14.40625 19.515625 -14.34375 19.640625 -14.21875 C 19.941406 -14.039062 20.03125 -13.71875 19.90625 -13.25 C 19.863281 -13.207031 19.84375 -13.175781 19.84375 -13.15625 C 19.84375 -13.132812 19.820312 -13.097656 19.78125 -13.046875 C 19.726562 -13.003906 19.679688 -12.960938 19.640625 -12.921875 C 19.597656 -12.878906 19.554688 -12.835938 19.515625 -12.796875 C 18.910156 -12.191406 18.046875 -11.382812 16.921875 -10.375 C 15.804688 -9.363281 14.65625 -8.445312 13.46875 -7.625 C 12.289062 -6.800781 11.25 -6.304688 10.34375 -6.140625 C 10.25 -6.097656 10.054688 -6.078125 9.765625 -6.078125 C 8.679688 -6.078125 8.140625 -6.703125 8.140625 -7.953125 C 8.140625 -8.804688 8.222656 -9.664062 8.390625 -10.53125 C 8.566406 -11.394531 8.765625 -12.257812 8.984375 -13.125 C 8.503906 -12.90625 8.179688 -12.6875 8.015625 -12.46875 C 7.929688 -12.34375 7.820312 -12.210938 7.6875 -12.078125 C 7.5625 -11.953125 7.457031 -11.847656 7.375 -11.765625 C 6.632812 -10.898438 5.898438 -10.066406 5.171875 -9.265625 C 4.441406 -8.472656 3.664062 -7.710938 2.84375 -6.984375 C 2.539062 -6.722656 2.148438 -6.421875 1.671875 -6.078125 C 1.203125 -5.734375 0.753906 -5.5625 0.328125 -5.5625 Z M 0.90625 -7.890625 C 1.164062 -7.890625 1.359375 -7.953125 1.484375 -8.078125 C 2.515625 -8.941406 3.484375 -9.890625 4.390625 -10.921875 C 5.296875 -11.953125 6.179688 -13.007812 7.046875 -14.09375 C 7.085938 -14.132812 7.128906 -14.175781 7.171875 -14.21875 C 7.210938 -14.257812 7.253906 -14.320312 7.296875 -14.40625 C 7.429688 -14.84375 7.347656 -15.144531 7.046875 -15.3125 C 6.703125 -15.53125 6.398438 -15.640625 6.140625 -15.640625 C 5.921875 -15.640625 5.648438 -15.550781 5.328125 -15.375 C 5.003906 -15.207031 4.757812 -15.035156 4.59375 -14.859375 C 2.5625 -13.097656 1.289062 -10.816406 0.78125 -8.015625 L 0.84375 -7.953125 C 0.882812 -7.953125 0.90625 -7.929688 0.90625 -7.890625 Z M 0.90625 -7.890625 "/></g></g></g><g fill="#ffffff" fill-opacity="0.8"><g transform="translate(84.563607, 48.426806)"><g><path d="M -0.1875 1.09375 C -0.238281 1.09375 -0.273438 1.09375 -0.296875 1.09375 C -0.316406 1.09375 -0.347656 1.09375 -0.390625 1.09375 C -0.390625 1.050781 -0.429688 1.03125 -0.515625 1.03125 C -0.941406 0.90625 -1.203125 0.582031 -1.296875 0.0625 C -1.296875 -0.0625 -1.296875 -0.1875 -1.296875 -0.3125 C -1.296875 -0.445312 -1.316406 -0.601562 -1.359375 -0.78125 C -1.359375 -0.90625 -1.359375 -1.03125 -1.359375 -1.15625 C -1.359375 -1.289062 -1.335938 -1.441406 -1.296875 -1.609375 C -0.859375 -4.503906 -0.210938 -7.113281 0.640625 -9.4375 C 1.503906 -11.757812 2.5 -14.210938 3.625 -16.796875 C 3.707031 -16.972656 3.789062 -17.132812 3.875 -17.28125 C 3.957031 -17.4375 4.046875 -17.578125 4.140625 -17.703125 C 4.265625 -17.835938 4.457031 -17.90625 4.71875 -17.90625 L 4.90625 -17.90625 C 5.25 -17.769531 5.398438 -17.550781 5.359375 -17.25 C 5.359375 -16.863281 5.253906 -16.390625 5.046875 -15.828125 C 4.785156 -15.179688 4.515625 -14.535156 4.234375 -13.890625 C 3.953125 -13.242188 3.660156 -12.597656 3.359375 -11.953125 C 2.929688 -10.960938 2.546875 -9.972656 2.203125 -8.984375 C 1.859375 -7.992188 1.554688 -7.003906 1.296875 -6.015625 C 1.203125 -5.671875 1.125 -5.320312 1.0625 -4.96875 C 1 -4.625 1.054688 -4.28125 1.234375 -3.9375 L 1.15625 -3.9375 L 1.234375 -3.875 L 3.75 -8.984375 C 4.269531 -9.972656 4.914062 -10.972656 5.6875 -11.984375 C 6.457031 -12.992188 7.34375 -13.800781 8.34375 -14.40625 C 8.59375 -14.539062 8.847656 -14.609375 9.109375 -14.609375 C 9.628906 -14.609375 10.039062 -14.347656 10.34375 -13.828125 C 10.425781 -13.742188 10.5 -13.632812 10.5625 -13.5 C 10.625 -13.375 10.679688 -13.25 10.734375 -13.125 C 10.773438 -12.863281 10.878906 -12.601562 11.046875 -12.34375 C 11.523438 -11.570312 12.046875 -11.1875 12.609375 -11.1875 C 12.992188 -11.1875 13.460938 -11.359375 14.015625 -11.703125 C 14.578125 -12.046875 15.148438 -12.429688 15.734375 -12.859375 C 16.316406 -13.285156 16.78125 -13.648438 17.125 -13.953125 C 17.382812 -14.210938 17.664062 -14.429688 17.96875 -14.609375 C 18.007812 -14.648438 18.09375 -14.671875 18.21875 -14.671875 C 18.394531 -14.671875 18.566406 -14.601562 18.734375 -14.46875 C 18.992188 -14.21875 19.0625 -13.960938 18.9375 -13.703125 C 18.757812 -13.359375 18.566406 -13.078125 18.359375 -12.859375 C 17.960938 -12.472656 17.421875 -12.007812 16.734375 -11.46875 C 16.046875 -10.925781 15.332031 -10.460938 14.59375 -10.078125 C 13.863281 -9.691406 13.203125 -9.5 12.609375 -9.5 C 11.523438 -9.5 10.640625 -9.972656 9.953125 -10.921875 C 9.867188 -11.046875 9.78125 -11.171875 9.6875 -11.296875 C 9.601562 -11.429688 9.519531 -11.566406 9.4375 -11.703125 C 9.394531 -11.828125 9.328125 -11.953125 9.234375 -12.078125 C 9.148438 -12.210938 9.066406 -12.34375 8.984375 -12.46875 C 8.679688 -12.46875 8.453125 -12.398438 8.296875 -12.265625 C 8.148438 -12.140625 8.015625 -11.992188 7.890625 -11.828125 C 7.285156 -11.222656 6.742188 -10.5625 6.265625 -9.84375 C 5.796875 -9.132812 5.363281 -8.414062 4.96875 -7.6875 C 4.71875 -7.175781 4.460938 -6.660156 4.203125 -6.140625 C 3.941406 -5.617188 3.703125 -5.101562 3.484375 -4.59375 C 3.234375 -4.070312 2.976562 -3.550781 2.71875 -3.03125 C 2.457031 -2.519531 2.175781 -1.984375 1.875 -1.421875 C 1.695312 -1.078125 1.507812 -0.742188 1.3125 -0.421875 C 1.125 -0.0976562 0.921875 0.234375 0.703125 0.578125 C 0.492188 0.921875 0.195312 1.09375 -0.1875 1.09375 Z M -0.1875 1.09375 "/></g></g></g><g fill="#ffffff" fill-opacity="0.8"><g transform="translate(100.3307, 48.426806)"><g><path d="M -0.515625 4.453125 C -1.035156 4.453125 -1.296875 4.21875 -1.296875 3.75 C -1.296875 3.488281 -1.285156 3.21875 -1.265625 2.9375 C -1.242188 2.65625 -1.207031 2.363281 -1.15625 2.0625 L -0.515625 -2.0625 C -0.429688 -2.457031 -0.410156 -2.847656 -0.453125 -3.234375 C -0.492188 -3.617188 -0.535156 -4.003906 -0.578125 -4.390625 C -0.578125 -4.773438 -0.445312 -5.117188 -0.1875 -5.421875 C 0.15625 -5.679688 0.347656 -6.03125 0.390625 -6.46875 C 0.515625 -7.195312 0.660156 -7.945312 0.828125 -8.71875 C 1.003906 -9.5 1.203125 -10.253906 1.421875 -10.984375 C 1.460938 -11.160156 1.492188 -11.332031 1.515625 -11.5 C 1.535156 -11.675781 1.460938 -11.828125 1.296875 -11.953125 C 0.953125 -12.253906 0.8125 -12.535156 0.875 -12.796875 C 0.9375 -13.054688 1.054688 -13.335938 1.234375 -13.640625 C 2.046875 -14.796875 2.722656 -16.019531 3.265625 -17.3125 C 3.804688 -18.613281 4.332031 -19.929688 4.84375 -21.265625 C 4.882812 -21.390625 5.085938 -21.894531 5.453125 -22.78125 C 5.828125 -23.664062 6.269531 -24.71875 6.78125 -25.9375 C 7.300781 -27.164062 7.863281 -28.382812 8.46875 -29.59375 C 9.070312 -30.800781 9.640625 -31.800781 10.171875 -32.59375 C 10.710938 -33.394531 11.175781 -33.796875 11.5625 -33.796875 C 11.738281 -33.796875 11.910156 -33.753906 12.078125 -33.671875 C 12.429688 -33.453125 12.5625 -33.148438 12.46875 -32.765625 C 12.257812 -31.941406 11.90625 -30.925781 11.40625 -29.71875 C 10.90625 -28.519531 10.34375 -27.273438 9.71875 -25.984375 C 9.09375 -24.691406 8.46875 -23.484375 7.84375 -22.359375 C 7.226562 -21.242188 6.703125 -20.316406 6.265625 -19.578125 C 5.359375 -18.023438 4.632812 -16.3125 4.09375 -14.4375 C 3.5625 -12.5625 3.082031 -10.765625 2.65625 -9.046875 C 2.601562 -8.867188 2.566406 -8.71875 2.546875 -8.59375 C 2.523438 -8.46875 2.5625 -8.316406 2.65625 -8.140625 C 3.039062 -8.359375 3.273438 -8.570312 3.359375 -8.78125 C 3.441406 -9.082031 3.570312 -9.320312 3.75 -9.5 C 4.476562 -10.75 5.285156 -11.988281 6.171875 -13.21875 C 7.054688 -14.445312 8.078125 -15.515625 9.234375 -16.421875 C 9.453125 -16.546875 9.664062 -16.660156 9.875 -16.765625 C 10.09375 -16.878906 10.332031 -16.957031 10.59375 -17 C 11.03125 -17.039062 11.398438 -16.910156 11.703125 -16.609375 C 12.003906 -16.304688 12.109375 -15.941406 12.015625 -15.515625 C 11.929688 -14.773438 11.535156 -13.910156 10.828125 -12.921875 C 10.117188 -11.929688 9.34375 -10.992188 8.5 -10.109375 C 7.65625 -9.222656 6.953125 -8.523438 6.390625 -8.015625 C 6.003906 -7.671875 5.609375 -7.328125 5.203125 -6.984375 C 4.796875 -6.640625 4.375 -6.296875 3.9375 -5.953125 C 3.8125 -5.816406 3.769531 -5.640625 3.8125 -5.421875 C 3.894531 -5.210938 4.046875 -5.109375 4.265625 -5.109375 C 6.929688 -5.316406 9.363281 -5.785156 11.5625 -6.515625 C 13.757812 -7.253906 15.914062 -8.53125 18.03125 -10.34375 C 18.375 -10.644531 18.71875 -10.929688 19.0625 -11.203125 C 19.40625 -11.484375 19.726562 -11.773438 20.03125 -12.078125 C 20.375 -12.378906 20.707031 -12.671875 21.03125 -12.953125 C 21.351562 -13.234375 21.6875 -13.523438 22.03125 -13.828125 C 22.125 -13.910156 22.222656 -13.992188 22.328125 -14.078125 C 22.429688 -14.171875 22.53125 -14.257812 22.625 -14.34375 C 22.707031 -14.425781 22.800781 -14.5 22.90625 -14.5625 C 23.019531 -14.632812 23.117188 -14.691406 23.203125 -14.734375 C 23.242188 -14.773438 23.351562 -14.796875 23.53125 -14.796875 C 23.695312 -14.796875 23.890625 -14.6875 24.109375 -14.46875 C 24.316406 -14.125 24.335938 -13.867188 24.171875 -13.703125 C 24.128906 -13.566406 23.957031 -13.347656 23.65625 -13.046875 C 21.675781 -11.203125 19.769531 -9.578125 17.9375 -8.171875 C 16.101562 -6.773438 14.140625 -5.664062 12.046875 -4.84375 C 9.960938 -4.03125 7.519531 -3.554688 4.71875 -3.421875 C 3.9375 -3.421875 3.394531 -3.410156 3.09375 -3.390625 C 2.800781 -3.367188 2.585938 -3.207031 2.453125 -2.90625 C 2.328125 -2.601562 2.113281 -2.066406 1.8125 -1.296875 C 1.726562 -0.992188 1.628906 -0.679688 1.515625 -0.359375 C 1.410156 -0.0351562 1.316406 0.296875 1.234375 0.640625 C 1.140625 0.941406 1.023438 1.253906 0.890625 1.578125 C 0.765625 1.898438 0.660156 2.234375 0.578125 2.578125 L 0.1875 4 C 0.0195312 4.300781 -0.210938 4.453125 -0.515625 4.453125 Z M 5.6875 -9.5 C 6.070312 -9.757812 6.617188 -10.242188 7.328125 -10.953125 C 8.046875 -11.660156 8.71875 -12.398438 9.34375 -13.171875 C 9.96875 -13.953125 10.320312 -14.5625 10.40625 -15 C 9.84375 -14.90625 9.226562 -14.523438 8.5625 -13.859375 C 7.894531 -13.191406 7.300781 -12.445312 6.78125 -11.625 C 6.269531 -10.8125 5.90625 -10.101562 5.6875 -9.5 Z M 5.6875 -9.5 "/></g></g></g><g fill="#000000" fill-opacity="1"><g transform="translate(12.635196, 47.984876)"><g><path d="M 10.015625 7.375 C 9.242188 7.375 8.640625 7.09375 8.203125 6.53125 C 7.390625 5.539062 7.285156 4.484375 7.890625 3.359375 C 8.617188 2.109375 9.640625 0.90625 10.953125 -0.25 C 12.265625 -1.414062 13.523438 -2.367188 14.734375 -3.109375 C 15.160156 -3.316406 15.566406 -3.550781 15.953125 -3.8125 C 16.347656 -4.070312 16.757812 -4.332031 17.1875 -4.59375 C 17.570312 -4.800781 17.96875 -5.035156 18.375 -5.296875 C 18.789062 -5.554688 19.210938 -5.796875 19.640625 -6.015625 C 20.285156 -6.398438 20.75 -6.9375 21.03125 -7.625 C 21.3125 -8.3125 21.492188 -9.023438 21.578125 -9.765625 C 21.835938 -12.347656 20.695312 -13.679688 18.15625 -13.765625 C 17.425781 -13.765625 16.738281 -13.703125 16.09375 -13.578125 C 15.613281 -13.484375 15.113281 -13.367188 14.59375 -13.234375 C 14.082031 -13.109375 13.59375 -13.003906 13.125 -12.921875 C 12.601562 -12.835938 12.082031 -12.726562 11.5625 -12.59375 C 11.050781 -12.46875 10.554688 -12.363281 10.078125 -12.28125 C 9.429688 -12.144531 8.765625 -12.015625 8.078125 -11.890625 C 7.390625 -11.765625 6.703125 -11.703125 6.015625 -11.703125 C 4.585938 -11.703125 3.378906 -12.046875 2.390625 -12.734375 C 1.398438 -13.421875 0.710938 -14.472656 0.328125 -15.890625 C 0.0234375 -17.015625 -0.09375 -18.132812 -0.03125 -19.25 C 0.03125 -20.375 0.210938 -21.5 0.515625 -22.625 C 1.078125 -25.03125 2.035156 -27.425781 3.390625 -29.8125 C 4.742188 -32.207031 6.359375 -34.425781 8.234375 -36.46875 C 10.109375 -38.519531 12.082031 -40.238281 14.15625 -41.625 C 15.445312 -42.476562 16.84375 -43.207031 18.34375 -43.8125 C 19.851562 -44.414062 21.382812 -44.71875 22.9375 -44.71875 C 24.707031 -44.71875 26.269531 -44.273438 27.625 -43.390625 C 28.976562 -42.515625 29.703125 -41.148438 29.796875 -39.296875 C 29.878906 -38.347656 29.789062 -37.503906 29.53125 -36.765625 C 28.71875 -33.921875 27.363281 -31.226562 25.46875 -28.6875 C 24.863281 -28 24.140625 -27.320312 23.296875 -26.65625 C 22.453125 -25.988281 21.535156 -25.65625 20.546875 -25.65625 C 20.335938 -25.65625 20.132812 -25.6875 19.9375 -25.75 C 19.738281 -25.8125 19.617188 -25.972656 19.578125 -26.234375 C 19.535156 -26.535156 19.664062 -26.816406 19.96875 -27.078125 C 20.050781 -27.160156 20.140625 -27.203125 20.234375 -27.203125 C 20.316406 -27.203125 20.378906 -27.222656 20.421875 -27.265625 C 21.367188 -27.441406 22.296875 -27.957031 23.203125 -28.8125 C 24.109375 -29.675781 24.9375 -30.710938 25.6875 -31.921875 C 26.4375 -33.128906 27.035156 -34.347656 27.484375 -35.578125 C 27.941406 -36.804688 28.171875 -37.875 28.171875 -38.78125 C 28.171875 -40.320312 27.65625 -41.414062 26.625 -42.0625 C 25.59375 -42.71875 24.382812 -43.046875 23 -43.046875 C 21.800781 -43.046875 20.550781 -42.804688 19.25 -42.328125 C 17.957031 -41.859375 16.816406 -41.300781 15.828125 -40.65625 C 8.941406 -36.21875 4.351562 -30.007812 2.0625 -22.03125 C 1.851562 -21.175781 1.710938 -20.335938 1.640625 -19.515625 C 1.578125 -18.691406 1.632812 -17.875 1.8125 -17.0625 C 2.238281 -14.5625 3.59375 -13.3125 5.875 -13.3125 C 6.050781 -13.3125 6.179688 -13.332031 6.265625 -13.375 C 6.304688 -13.375 6.359375 -13.375 6.421875 -13.375 C 6.492188 -13.375 6.550781 -13.375 6.59375 -13.375 C 6.851562 -13.414062 7.109375 -13.46875 7.359375 -13.53125 C 7.617188 -13.601562 7.878906 -13.660156 8.140625 -13.703125 C 8.398438 -13.742188 8.660156 -13.785156 8.921875 -13.828125 C 9.179688 -13.867188 9.4375 -13.910156 9.6875 -13.953125 C 10.164062 -14.046875 10.648438 -14.15625 11.140625 -14.28125 C 11.640625 -14.40625 12.128906 -14.515625 12.609375 -14.609375 C 13.078125 -14.691406 13.546875 -14.785156 14.015625 -14.890625 C 14.492188 -15.003906 14.972656 -15.101562 15.453125 -15.1875 C 15.960938 -15.3125 16.472656 -15.382812 16.984375 -15.40625 C 17.503906 -15.4375 18.046875 -15.453125 18.609375 -15.453125 C 20.117188 -15.359375 21.289062 -14.847656 22.125 -13.921875 C 22.96875 -12.992188 23.367188 -11.78125 23.328125 -10.28125 C 23.328125 -10.019531 23.285156 -9.71875 23.203125 -9.375 C 23.117188 -9.03125 23.140625 -8.707031 23.265625 -8.40625 L 23.53125 -8.40625 C 23.875 -8.40625 24.148438 -8.488281 24.359375 -8.65625 C 24.453125 -8.738281 24.5625 -8.8125 24.6875 -8.875 C 24.8125 -8.945312 24.921875 -9.003906 25.015625 -9.046875 L 33.609375 -13.578125 C 33.691406 -13.617188 33.796875 -13.660156 33.921875 -13.703125 C 34.054688 -13.742188 34.1875 -13.785156 34.3125 -13.828125 C 34.394531 -13.867188 34.5 -13.910156 34.625 -13.953125 C 34.757812 -14.003906 34.875 -14.050781 34.96875 -14.09375 C 35.007812 -14.132812 35.09375 -14.15625 35.21875 -14.15625 C 35.4375 -14.15625 35.609375 -14.046875 35.734375 -13.828125 C 35.773438 -13.742188 35.804688 -13.65625 35.828125 -13.5625 C 35.847656 -13.476562 35.859375 -13.394531 35.859375 -13.3125 C 35.859375 -13.09375 35.796875 -12.941406 35.671875 -12.859375 C 35.453125 -12.640625 35.21875 -12.46875 34.96875 -12.34375 C 34.832031 -12.300781 34.695312 -12.242188 34.5625 -12.171875 C 34.4375 -12.109375 34.3125 -12.035156 34.1875 -11.953125 C 33.363281 -11.523438 32.53125 -11.082031 31.6875 -10.625 C 30.851562 -10.175781 30.003906 -9.710938 29.140625 -9.234375 C 27.421875 -8.285156 25.675781 -7.382812 23.90625 -6.53125 C 22.65625 -5.882812 21.753906 -4.957031 21.203125 -3.75 C 20.804688 -2.882812 20.253906 -1.890625 19.546875 -0.765625 C 18.835938 0.347656 18.019531 1.453125 17.09375 2.546875 C 16.164062 3.648438 15.195312 4.617188 14.1875 5.453125 C 13.175781 6.296875 12.21875 6.847656 11.3125 7.109375 C 10.96875 7.285156 10.535156 7.375 10.015625 7.375 Z M 10.140625 5.6875 C 10.316406 5.6875 10.425781 5.664062 10.46875 5.625 C 10.894531 5.445312 11.328125 5.226562 11.765625 4.96875 C 13.140625 4.15625 14.472656 2.984375 15.765625 1.453125 C 17.054688 -0.078125 18.003906 -1.703125 18.609375 -3.421875 C 17.703125 -2.910156 16.570312 -2.210938 15.21875 -1.328125 C 13.863281 -0.441406 12.613281 0.492188 11.46875 1.484375 C 10.332031 2.472656 9.585938 3.441406 9.234375 4.390625 C 9.148438 4.734375 9.238281 5.054688 9.5 5.359375 C 9.71875 5.578125 9.929688 5.6875 10.140625 5.6875 Z M 10.140625 5.6875 "/></g></g></g><g fill="#000000" fill-opacity="1"><g transform="translate(45.267908, 47.984876)"><g><path d="M 1.234375 2.0625 C 0.710938 2.0625 0.363281 1.785156 0.1875 1.234375 C 0.0625 0.710938 0 0.148438 0 -0.453125 C -0.0820312 -1.703125 -0.0625 -2.929688 0.0625 -4.140625 C 0.195312 -5.347656 0.367188 -6.570312 0.578125 -7.8125 C 0.660156 -8.25 0.742188 -8.671875 0.828125 -9.078125 C 0.921875 -9.484375 1.007812 -9.90625 1.09375 -10.34375 C 1.1875 -10.726562 1.273438 -11.125 1.359375 -11.53125 C 1.441406 -11.945312 1.503906 -12.367188 1.546875 -12.796875 C 1.585938 -13.015625 1.640625 -13.21875 1.703125 -13.40625 C 1.773438 -13.601562 1.832031 -13.785156 1.875 -13.953125 C 1.957031 -14.347656 1.894531 -14.78125 1.6875 -15.25 C 1.59375 -15.507812 1.613281 -15.722656 1.75 -15.890625 C 1.789062 -15.984375 1.832031 -16.070312 1.875 -16.15625 C 1.914062 -16.238281 1.957031 -16.328125 2 -16.421875 C 2.21875 -16.710938 2.410156 -17.019531 2.578125 -17.34375 C 2.753906 -17.675781 2.90625 -17.988281 3.03125 -18.28125 C 3.125 -18.632812 3.234375 -18.972656 3.359375 -19.296875 C 3.484375 -19.617188 3.613281 -19.953125 3.75 -20.296875 C 4.863281 -23.691406 6.269531 -27.125 7.96875 -30.59375 C 9.675781 -34.0625 11.628906 -37.238281 13.828125 -40.125 C 13.910156 -40.21875 14.023438 -40.316406 14.171875 -40.421875 C 14.328125 -40.523438 14.492188 -40.625 14.671875 -40.71875 C 14.710938 -40.757812 14.773438 -40.78125 14.859375 -40.78125 C 15.296875 -40.78125 15.515625 -40.609375 15.515625 -40.265625 C 15.515625 -40.171875 15.515625 -40.082031 15.515625 -40 C 15.515625 -39.914062 15.515625 -39.832031 15.515625 -39.75 C 15.515625 -39.65625 15.503906 -39.566406 15.484375 -39.484375 C 15.460938 -39.398438 15.425781 -39.316406 15.375 -39.234375 C 15.332031 -39.054688 15.289062 -38.890625 15.25 -38.734375 C 15.207031 -38.585938 15.144531 -38.429688 15.0625 -38.265625 C 15.019531 -38.085938 14.960938 -37.921875 14.890625 -37.765625 C 14.828125 -37.617188 14.753906 -37.457031 14.671875 -37.28125 C 13.421875 -34.488281 12.113281 -31.753906 10.75 -29.078125 C 9.394531 -26.410156 7.878906 -23.785156 6.203125 -21.203125 C 5.554688 -20.203125 4.960938 -18.875 4.421875 -17.21875 C 3.890625 -15.5625 3.414062 -13.796875 3 -11.921875 C 2.59375 -10.046875 2.269531 -8.242188 2.03125 -6.515625 C 1.800781 -4.796875 1.6875 -3.378906 1.6875 -2.265625 C 1.6875 -2.128906 1.695312 -2.007812 1.71875 -1.90625 C 1.738281 -1.800781 1.769531 -1.640625 1.8125 -1.421875 C 2.238281 -1.722656 2.519531 -2.046875 2.65625 -2.390625 C 2.738281 -2.566406 2.8125 -2.726562 2.875 -2.875 C 2.9375 -3.03125 3.015625 -3.191406 3.109375 -3.359375 C 3.535156 -4.265625 4.09375 -5.382812 4.78125 -6.71875 C 5.46875 -8.050781 6.21875 -9.40625 7.03125 -10.78125 C 7.851562 -12.164062 8.71875 -13.4375 9.625 -14.59375 C 10.53125 -15.757812 11.394531 -16.625 12.21875 -17.1875 C 12.519531 -17.40625 12.84375 -17.515625 13.1875 -17.515625 C 13.957031 -17.515625 14.410156 -17.082031 14.546875 -16.21875 C 14.585938 -16.050781 14.617188 -15.898438 14.640625 -15.765625 C 14.660156 -15.640625 14.671875 -15.507812 14.671875 -15.375 C 14.628906 -15.207031 14.609375 -15.054688 14.609375 -14.921875 C 14.609375 -14.796875 14.609375 -14.671875 14.609375 -14.546875 C 14.609375 -14.242188 14.609375 -13.960938 14.609375 -13.703125 C 14.609375 -13.441406 14.609375 -13.179688 14.609375 -12.921875 C 14.566406 -12.410156 14.566406 -11.894531 14.609375 -11.375 C 14.609375 -11.195312 14.609375 -11.046875 14.609375 -10.921875 C 14.609375 -10.796875 14.609375 -10.664062 14.609375 -10.53125 C 14.609375 -10.363281 14.617188 -10.210938 14.640625 -10.078125 C 14.660156 -9.953125 14.691406 -9.820312 14.734375 -9.6875 C 14.859375 -8.957031 15.160156 -8.59375 15.640625 -8.59375 C 15.898438 -8.59375 16.160156 -8.65625 16.421875 -8.78125 C 16.929688 -9.039062 17.628906 -9.472656 18.515625 -10.078125 C 19.398438 -10.679688 20.257812 -11.316406 21.09375 -11.984375 C 21.9375 -12.648438 22.550781 -13.179688 22.9375 -13.578125 C 23.15625 -13.828125 23.394531 -14.0625 23.65625 -14.28125 C 23.738281 -14.363281 23.84375 -14.40625 23.96875 -14.40625 C 24.101562 -14.40625 24.191406 -14.382812 24.234375 -14.34375 C 24.273438 -14.300781 24.304688 -14.28125 24.328125 -14.28125 C 24.347656 -14.28125 24.378906 -14.257812 24.421875 -14.21875 C 24.679688 -14 24.789062 -13.738281 24.75 -13.4375 C 24.625 -12.96875 24.160156 -12.363281 23.359375 -11.625 C 22.566406 -10.894531 21.640625 -10.164062 20.578125 -9.4375 C 19.523438 -8.707031 18.535156 -8.09375 17.609375 -7.59375 C 16.679688 -7.09375 16.003906 -6.84375 15.578125 -6.84375 C 14.285156 -6.84375 13.46875 -7.617188 13.125 -9.171875 C 12.988281 -9.816406 12.910156 -10.472656 12.890625 -11.140625 C 12.867188 -11.816406 12.878906 -12.5 12.921875 -13.1875 C 12.921875 -13.351562 12.921875 -13.5 12.921875 -13.625 C 12.921875 -13.757812 12.921875 -13.894531 12.921875 -14.03125 C 12.921875 -14.15625 12.921875 -14.28125 12.921875 -14.40625 C 12.921875 -14.539062 12.898438 -14.691406 12.859375 -14.859375 C 12.859375 -15.035156 12.773438 -15.125 12.609375 -15.125 C 12.515625 -15.125 12.445312 -15.101562 12.40625 -15.0625 C 12.238281 -14.96875 12.085938 -14.859375 11.953125 -14.734375 C 11.828125 -14.609375 11.71875 -14.5 11.625 -14.40625 C 10.207031 -12.8125 8.894531 -10.882812 7.6875 -8.625 C 6.476562 -6.363281 5.425781 -4.285156 4.53125 -2.390625 C 4.3125 -1.921875 4.070312 -1.457031 3.8125 -1 C 3.550781 -0.550781 3.289062 -0.0859375 3.03125 0.390625 C 2.78125 0.992188 2.4375 1.445312 2 1.75 C 1.65625 1.957031 1.398438 2.0625 1.234375 2.0625 Z M 9.046875 -28.953125 L 9.109375 -28.953125 L 9.109375 -29.015625 C 9.410156 -29.398438 9.539062 -29.742188 9.5 -30.046875 C 9.457031 -29.835938 9.414062 -29.644531 9.375 -29.46875 C 9.332031 -29.289062 9.222656 -29.117188 9.046875 -28.953125 Z M 9.625 -30.1875 L 10.015625 -30.5 C 9.972656 -30.457031 9.921875 -30.414062 9.859375 -30.375 C 9.796875 -30.332031 9.71875 -30.269531 9.625 -30.1875 Z M 10.203125 -30.828125 C 10.296875 -30.910156 10.34375 -30.992188 10.34375 -31.078125 C 10.34375 -31.210938 10.363281 -31.300781 10.40625 -31.34375 Z M 10.203125 -30.828125 "/></g></g></g><g fill="#000000" fill-opacity="1"><g transform="translate(66.786107, 47.984876)"><g><path d="M 0.328125 -5.5625 C -0.535156 -5.5625 -1.007812 -6.078125 -1.09375 -7.109375 C -1.09375 -8.054688 -0.890625 -9.066406 -0.484375 -10.140625 C -0.078125 -11.222656 0.4375 -12.257812 1.0625 -13.25 C 1.6875 -14.238281 2.320312 -15.054688 2.96875 -15.703125 C 3.144531 -15.921875 3.46875 -16.203125 3.9375 -16.546875 C 4.625 -17.109375 5.335938 -17.390625 6.078125 -17.390625 C 6.722656 -17.390625 7.367188 -17.128906 8.015625 -16.609375 C 8.359375 -16.390625 8.550781 -16.28125 8.59375 -16.28125 C 8.71875 -16.28125 8.910156 -16.453125 9.171875 -16.796875 C 9.390625 -17.015625 9.59375 -17.253906 9.78125 -17.515625 C 9.976562 -17.773438 10.164062 -18.03125 10.34375 -18.28125 C 10.507812 -18.539062 10.691406 -18.800781 10.890625 -19.0625 C 11.085938 -19.320312 11.269531 -19.582031 11.4375 -19.84375 C 11.519531 -19.925781 11.601562 -20.03125 11.6875 -20.15625 C 11.78125 -20.289062 11.867188 -20.421875 11.953125 -20.546875 C 12.035156 -20.640625 12.109375 -20.75 12.171875 -20.875 C 12.242188 -21 12.320312 -21.109375 12.40625 -21.203125 C 12.707031 -21.503906 12.96875 -21.65625 13.1875 -21.65625 C 13.1875 -21.65625 13.316406 -21.609375 13.578125 -21.515625 C 14.003906 -21.253906 14.109375 -20.828125 13.890625 -20.234375 C 13.847656 -20.054688 13.796875 -19.898438 13.734375 -19.765625 C 13.671875 -19.640625 13.59375 -19.515625 13.5 -19.390625 C 13.332031 -19.085938 13.179688 -18.785156 13.046875 -18.484375 C 12.660156 -17.660156 12.207031 -16.644531 11.6875 -15.4375 C 11.175781 -14.238281 10.738281 -13.023438 10.375 -11.796875 C 10.007812 -10.566406 9.828125 -9.476562 9.828125 -8.53125 C 9.828125 -8.144531 9.953125 -7.953125 10.203125 -7.953125 C 10.335938 -7.953125 10.425781 -7.972656 10.46875 -8.015625 C 10.769531 -8.140625 11.0625 -8.265625 11.34375 -8.390625 C 11.625 -8.523438 11.914062 -8.679688 12.21875 -8.859375 C 12.601562 -9.109375 13 -9.375 13.40625 -9.65625 C 13.820312 -9.9375 14.222656 -10.25 14.609375 -10.59375 C 14.910156 -10.8125 15.1875 -11.050781 15.4375 -11.3125 C 15.695312 -11.570312 15.957031 -11.804688 16.21875 -12.015625 C 16.695312 -12.492188 17.210938 -12.945312 17.765625 -13.375 C 17.859375 -13.457031 17.957031 -13.539062 18.0625 -13.625 C 18.164062 -13.71875 18.265625 -13.804688 18.359375 -13.890625 C 18.441406 -13.984375 18.613281 -14.113281 18.875 -14.28125 C 18.957031 -14.320312 19.019531 -14.351562 19.0625 -14.375 C 19.101562 -14.394531 19.144531 -14.40625 19.1875 -14.40625 C 19.363281 -14.40625 19.515625 -14.34375 19.640625 -14.21875 C 19.941406 -14.039062 20.03125 -13.71875 19.90625 -13.25 C 19.863281 -13.207031 19.84375 -13.175781 19.84375 -13.15625 C 19.84375 -13.132812 19.820312 -13.097656 19.78125 -13.046875 C 19.726562 -13.003906 19.679688 -12.960938 19.640625 -12.921875 C 19.597656 -12.878906 19.554688 -12.835938 19.515625 -12.796875 C 18.910156 -12.191406 18.046875 -11.382812 16.921875 -10.375 C 15.804688 -9.363281 14.65625 -8.445312 13.46875 -7.625 C 12.289062 -6.800781 11.25 -6.304688 10.34375 -6.140625 C 10.25 -6.097656 10.054688 -6.078125 9.765625 -6.078125 C 8.679688 -6.078125 8.140625 -6.703125 8.140625 -7.953125 C 8.140625 -8.804688 8.222656 -9.664062 8.390625 -10.53125 C 8.566406 -11.394531 8.765625 -12.257812 8.984375 -13.125 C 8.503906 -12.90625 8.179688 -12.6875 8.015625 -12.46875 C 7.929688 -12.34375 7.820312 -12.210938 7.6875 -12.078125 C 7.5625 -11.953125 7.457031 -11.847656 7.375 -11.765625 C 6.632812 -10.898438 5.898438 -10.066406 5.171875 -9.265625 C 4.441406 -8.472656 3.664062 -7.710938 2.84375 -6.984375 C 2.539062 -6.722656 2.148438 -6.421875 1.671875 -6.078125 C 1.203125 -5.734375 0.753906 -5.5625 0.328125 -5.5625 Z M 0.90625 -7.890625 C 1.164062 -7.890625 1.359375 -7.953125 1.484375 -8.078125 C 2.515625 -8.941406 3.484375 -9.890625 4.390625 -10.921875 C 5.296875 -11.953125 6.179688 -13.007812 7.046875 -14.09375 C 7.085938 -14.132812 7.128906 -14.175781 7.171875 -14.21875 C 7.210938 -14.257812 7.253906 -14.320312 7.296875 -14.40625 C 7.429688 -14.84375 7.347656 -15.144531 7.046875 -15.3125 C 6.703125 -15.53125 6.398438 -15.640625 6.140625 -15.640625 C 5.921875 -15.640625 5.648438 -15.550781 5.328125 -15.375 C 5.003906 -15.207031 4.757812 -15.035156 4.59375 -14.859375 C 2.5625 -13.097656 1.289062 -10.816406 0.78125 -8.015625 L 0.84375 -7.953125 C 0.882812 -7.953125 0.90625 -7.929688 0.90625 -7.890625 Z M 0.90625 -7.890625 "/></g></g></g><g fill="#000000" fill-opacity="1"><g transform="translate(83.522486, 47.984876)"><g><path d="M -0.1875 1.09375 C -0.238281 1.09375 -0.273438 1.09375 -0.296875 1.09375 C -0.316406 1.09375 -0.347656 1.09375 -0.390625 1.09375 C -0.390625 1.050781 -0.429688 1.03125 -0.515625 1.03125 C -0.941406 0.90625 -1.203125 0.582031 -1.296875 0.0625 C -1.296875 -0.0625 -1.296875 -0.1875 -1.296875 -0.3125 C -1.296875 -0.445312 -1.316406 -0.601562 -1.359375 -0.78125 C -1.359375 -0.90625 -1.359375 -1.03125 -1.359375 -1.15625 C -1.359375 -1.289062 -1.335938 -1.441406 -1.296875 -1.609375 C -0.859375 -4.503906 -0.210938 -7.113281 0.640625 -9.4375 C 1.503906 -11.757812 2.5 -14.210938 3.625 -16.796875 C 3.707031 -16.972656 3.789062 -17.132812 3.875 -17.28125 C 3.957031 -17.4375 4.046875 -17.578125 4.140625 -17.703125 C 4.265625 -17.835938 4.457031 -17.90625 4.71875 -17.90625 L 4.90625 -17.90625 C 5.25 -17.769531 5.398438 -17.550781 5.359375 -17.25 C 5.359375 -16.863281 5.253906 -16.390625 5.046875 -15.828125 C 4.785156 -15.179688 4.515625 -14.535156 4.234375 -13.890625 C 3.953125 -13.242188 3.660156 -12.597656 3.359375 -11.953125 C 2.929688 -10.960938 2.546875 -9.972656 2.203125 -8.984375 C 1.859375 -7.992188 1.554688 -7.003906 1.296875 -6.015625 C 1.203125 -5.671875 1.125 -5.320312 1.0625 -4.96875 C 1 -4.625 1.054688 -4.28125 1.234375 -3.9375 L 1.15625 -3.9375 L 1.234375 -3.875 L 3.75 -8.984375 C 4.269531 -9.972656 4.914062 -10.972656 5.6875 -11.984375 C 6.457031 -12.992188 7.34375 -13.800781 8.34375 -14.40625 C 8.59375 -14.539062 8.847656 -14.609375 9.109375 -14.609375 C 9.628906 -14.609375 10.039062 -14.347656 10.34375 -13.828125 C 10.425781 -13.742188 10.5 -13.632812 10.5625 -13.5 C 10.625 -13.375 10.679688 -13.25 10.734375 -13.125 C 10.773438 -12.863281 10.878906 -12.601562 11.046875 -12.34375 C 11.523438 -11.570312 12.046875 -11.1875 12.609375 -11.1875 C 12.992188 -11.1875 13.460938 -11.359375 14.015625 -11.703125 C 14.578125 -12.046875 15.148438 -12.429688 15.734375 -12.859375 C 16.316406 -13.285156 16.78125 -13.648438 17.125 -13.953125 C 17.382812 -14.210938 17.664062 -14.429688 17.96875 -14.609375 C 18.007812 -14.648438 18.09375 -14.671875 18.21875 -14.671875 C 18.394531 -14.671875 18.566406 -14.601562 18.734375 -14.46875 C 18.992188 -14.21875 19.0625 -13.960938 18.9375 -13.703125 C 18.757812 -13.359375 18.566406 -13.078125 18.359375 -12.859375 C 17.960938 -12.472656 17.421875 -12.007812 16.734375 -11.46875 C 16.046875 -10.925781 15.332031 -10.460938 14.59375 -10.078125 C 13.863281 -9.691406 13.203125 -9.5 12.609375 -9.5 C 11.523438 -9.5 10.640625 -9.972656 9.953125 -10.921875 C 9.867188 -11.046875 9.78125 -11.171875 9.6875 -11.296875 C 9.601562 -11.429688 9.519531 -11.566406 9.4375 -11.703125 C 9.394531 -11.828125 9.328125 -11.953125 9.234375 -12.078125 C 9.148438 -12.210938 9.066406 -12.34375 8.984375 -12.46875 C 8.679688 -12.46875 8.453125 -12.398438 8.296875 -12.265625 C 8.148438 -12.140625 8.015625 -11.992188 7.890625 -11.828125 C 7.285156 -11.222656 6.742188 -10.5625 6.265625 -9.84375 C 5.796875 -9.132812 5.363281 -8.414062 4.96875 -7.6875 C 4.71875 -7.175781 4.460938 -6.660156 4.203125 -6.140625 C 3.941406 -5.617188 3.703125 -5.101562 3.484375 -4.59375 C 3.234375 -4.070312 2.976562 -3.550781 2.71875 -3.03125 C 2.457031 -2.519531 2.175781 -1.984375 1.875 -1.421875 C 1.695312 -1.078125 1.507812 -0.742188 1.3125 -0.421875 C 1.125 -0.0976562 0.921875 0.234375 0.703125 0.578125 C 0.492188 0.921875 0.195312 1.09375 -0.1875 1.09375 Z M -0.1875 1.09375 "/></g></g></g><g fill="#000000" fill-opacity="1"><g transform="translate(99.289579, 47.984876)"><g><path d="M -0.515625 4.453125 C -1.035156 4.453125 -1.296875 4.21875 -1.296875 3.75 C -1.296875 3.488281 -1.285156 3.21875 -1.265625 2.9375 C -1.242188 2.65625 -1.207031 2.363281 -1.15625 2.0625 L -0.515625 -2.0625 C -0.429688 -2.457031 -0.410156 -2.847656 -0.453125 -3.234375 C -0.492188 -3.617188 -0.535156 -4.003906 -0.578125 -4.390625 C -0.578125 -4.773438 -0.445312 -5.117188 -0.1875 -5.421875 C 0.15625 -5.679688 0.347656 -6.03125 0.390625 -6.46875 C 0.515625 -7.195312 0.660156 -7.945312 0.828125 -8.71875 C 1.003906 -9.5 1.203125 -10.253906 1.421875 -10.984375 C 1.460938 -11.160156 1.492188 -11.332031 1.515625 -11.5 C 1.535156 -11.675781 1.460938 -11.828125 1.296875 -11.953125 C 0.953125 -12.253906 0.8125 -12.535156 0.875 -12.796875 C 0.9375 -13.054688 1.054688 -13.335938 1.234375 -13.640625 C 2.046875 -14.796875 2.722656 -16.019531 3.265625 -17.3125 C 3.804688 -18.613281 4.332031 -19.929688 4.84375 -21.265625 C 4.882812 -21.390625 5.085938 -21.894531 5.453125 -22.78125 C 5.828125 -23.664062 6.269531 -24.71875 6.78125 -25.9375 C 7.300781 -27.164062 7.863281 -28.382812 8.46875 -29.59375 C 9.070312 -30.800781 9.640625 -31.800781 10.171875 -32.59375 C 10.710938 -33.394531 11.175781 -33.796875 11.5625 -33.796875 C 11.738281 -33.796875 11.910156 -33.753906 12.078125 -33.671875 C 12.429688 -33.453125 12.5625 -33.148438 12.46875 -32.765625 C 12.257812 -31.941406 11.90625 -30.925781 11.40625 -29.71875 C 10.90625 -28.519531 10.34375 -27.273438 9.71875 -25.984375 C 9.09375 -24.691406 8.46875 -23.484375 7.84375 -22.359375 C 7.226562 -21.242188 6.703125 -20.316406 6.265625 -19.578125 C 5.359375 -18.023438 4.632812 -16.3125 4.09375 -14.4375 C 3.5625 -12.5625 3.082031 -10.765625 2.65625 -9.046875 C 2.601562 -8.867188 2.566406 -8.71875 2.546875 -8.59375 C 2.523438 -8.46875 2.5625 -8.316406 2.65625 -8.140625 C 3.039062 -8.359375 3.273438 -8.570312 3.359375 -8.78125 C 3.441406 -9.082031 3.570312 -9.320312 3.75 -9.5 C 4.476562 -10.75 5.285156 -11.988281 6.171875 -13.21875 C 7.054688 -14.445312 8.078125 -15.515625 9.234375 -16.421875 C 9.453125 -16.546875 9.664062 -16.660156 9.875 -16.765625 C 10.09375 -16.878906 10.332031 -16.957031 10.59375 -17 C 11.03125 -17.039062 11.398438 -16.910156 11.703125 -16.609375 C 12.003906 -16.304688 12.109375 -15.941406 12.015625 -15.515625 C 11.929688 -14.773438 11.535156 -13.910156 10.828125 -12.921875 C 10.117188 -11.929688 9.34375 -10.992188 8.5 -10.109375 C 7.65625 -9.222656 6.953125 -8.523438 6.390625 -8.015625 C 6.003906 -7.671875 5.609375 -7.328125 5.203125 -6.984375 C 4.796875 -6.640625 4.375 -6.296875 3.9375 -5.953125 C 3.8125 -5.816406 3.769531 -5.640625 3.8125 -5.421875 C 3.894531 -5.210938 4.046875 -5.109375 4.265625 -5.109375 C 6.929688 -5.316406 9.363281 -5.785156 11.5625 -6.515625 C 13.757812 -7.253906 15.914062 -8.53125 18.03125 -10.34375 C 18.375 -10.644531 18.71875 -10.929688 19.0625 -11.203125 C 19.40625 -11.484375 19.726562 -11.773438 20.03125 -12.078125 C 20.375 -12.378906 20.707031 -12.671875 21.03125 -12.953125 C 21.351562 -13.234375 21.6875 -13.523438 22.03125 -13.828125 C 22.125 -13.910156 22.222656 -13.992188 22.328125 -14.078125 C 22.429688 -14.171875 22.53125 -14.257812 22.625 -14.34375 C 22.707031 -14.425781 22.800781 -14.5 22.90625 -14.5625 C 23.019531 -14.632812 23.117188 -14.691406 23.203125 -14.734375 C 23.242188 -14.773438 23.351562 -14.796875 23.53125 -14.796875 C 23.695312 -14.796875 23.890625 -14.6875 24.109375 -14.46875 C 24.316406 -14.125 24.335938 -13.867188 24.171875 -13.703125 C 24.128906 -13.566406 23.957031 -13.347656 23.65625 -13.046875 C 21.675781 -11.203125 19.769531 -9.578125 17.9375 -8.171875 C 16.101562 -6.773438 14.140625 -5.664062 12.046875 -4.84375 C 9.960938 -4.03125 7.519531 -3.554688 4.71875 -3.421875 C 3.9375 -3.421875 3.394531 -3.410156 3.09375 -3.390625 C 2.800781 -3.367188 2.585938 -3.207031 2.453125 -2.90625 C 2.328125 -2.601562 2.113281 -2.066406 1.8125 -1.296875 C 1.726562 -0.992188 1.628906 -0.679688 1.515625 -0.359375 C 1.410156 -0.0351562 1.316406 0.296875 1.234375 0.640625 C 1.140625 0.941406 1.023438 1.253906 0.890625 1.578125 C 0.765625 1.898438 0.660156 2.234375 0.578125 2.578125 L 0.1875 4 C 0.0195312 4.300781 -0.210938 4.453125 -0.515625 4.453125 Z M 5.6875 -9.5 C 6.070312 -9.757812 6.617188 -10.242188 7.328125 -10.953125 C 8.046875 -11.660156 8.71875 -12.398438 9.34375 -13.171875 C 9.96875 -13.953125 10.320312 -14.5625 10.40625 -15 C 9.84375 -14.90625 9.226562 -14.523438 8.5625 -13.859375 C 7.894531 -13.191406 7.300781 -12.445312 6.78125 -11.625 C 6.269531 -10.8125 5.90625 -10.101562 5.6875 -9.5 Z M 5.6875 -9.5 "/></g></g></g></svg>